<svg width="1440" height="1024" viewBox="0 0 1440 1024" fill="none" xmlns="http://www.w3.org/2000/svg">
<g opacity="0.5">
    <path opacity="0.42" d="M774 512C1004.03 512 1190.5 325.527 1190.5 95.5C1190.5 -134.527 1004.03 -321 774 -321C543.973 -321 357.5 -134.527 357.5 95.5C357.5 325.527 543.973 512 774 512Z" stroke="#FFF" stroke-width="3" stroke-miterlimit="10"/>
    <path opacity="0.42" d="M666.2 526.35C896.227 526.35 1082.7 339.877 1082.7 109.85C1082.7 -120.177 896.227 -306.65 666.2 -306.65C436.173 -306.65 249.7 -120.177 249.7 109.85C249.7 339.877 436.173 526.35 666.2 526.35Z" stroke="#FFF" stroke-width="3" stroke-miterlimit="10"/>
    <path opacity="0.42" d="M565.75 567.65C795.777 567.65 982.25 381.177 982.25 151.15C982.25 -78.8766 795.777 -265.35 565.75 -265.35C335.723 -265.35 149.25 -78.8766 149.25 151.15C149.25 381.177 335.723 567.65 565.75 567.65Z" stroke="#FFF" stroke-width="3" stroke-miterlimit="10"/>
    <path opacity="0.42" d="M479.65 634.15C709.677 634.15 896.15 447.677 896.15 217.65C896.15 -12.3766 709.677 -198.85 479.65 -198.85C249.623 -198.85 63.15 -12.3766 63.15 217.65C63.15 447.677 249.623 634.15 479.65 634.15Z" stroke="#FFF" stroke-width="3" stroke-miterlimit="10"/>
    <path opacity="0.42" d="M413.15 720.25C643.177 720.25 829.65 533.777 829.65 303.75C829.65 73.7234 643.177 -112.75 413.15 -112.75C183.123 -112.75 -3.34999 73.7234 -3.34999 303.75C-3.34999 533.777 183.123 720.25 413.15 720.25Z" stroke="#FFF" stroke-width="3" stroke-miterlimit="10"/>
    <path opacity="0.42" d="M371.85 820.7C601.877 820.7 788.35 634.227 788.35 404.2C788.35 174.173 601.877 -12.3 371.85 -12.3C141.823 -12.3 -44.65 174.173 -44.65 404.2C-44.65 634.227 141.823 820.7 371.85 820.7Z" stroke="#FFF" stroke-width="3" stroke-miterlimit="10"/>
    <path opacity="0.42" d="M357.5 928.5C587.527 928.5 774 742.027 774 512C774 281.973 587.527 95.5 357.5 95.5C127.473 95.5 -59 281.973 -59 512C-59 742.027 127.473 928.5 357.5 928.5Z" stroke="#FFF" stroke-width="3" stroke-miterlimit="10"/>
    <path opacity="0.42" d="M371.85 1036.3C601.877 1036.3 788.35 849.827 788.35 619.8C788.35 389.773 601.877 203.3 371.85 203.3C141.823 203.3 -44.65 389.773 -44.65 619.8C-44.65 849.827 141.823 1036.3 371.85 1036.3Z" stroke="#FFF" stroke-width="3" stroke-miterlimit="10"/>
    <path opacity="0.42" d="M413.15 1136.75C643.177 1136.75 829.65 950.277 829.65 720.25C829.65 490.223 643.177 303.75 413.15 303.75C183.123 303.75 -3.34999 490.223 -3.34999 720.25C-3.34999 950.277 183.123 1136.75 413.15 1136.75Z" stroke="#FFF" stroke-width="3" stroke-miterlimit="10"/>
    <path opacity="0.42" d="M479.65 1222.85C709.677 1222.85 896.15 1036.38 896.15 806.35C896.15 576.323 709.677 389.85 479.65 389.85C249.623 389.85 63.15 576.323 63.15 806.35C63.15 1036.38 249.623 1222.85 479.65 1222.85Z" stroke="#FFF" stroke-width="3" stroke-miterlimit="10"/>
    <path opacity="0.42" d="M565.75 1289.35C795.777 1289.35 982.25 1102.88 982.25 872.85C982.25 642.823 795.777 456.35 565.75 456.35C335.723 456.35 149.25 642.823 149.25 872.85C149.25 1102.88 335.723 1289.35 565.75 1289.35Z" stroke="#FFF" stroke-width="3" stroke-miterlimit="10"/>
    <path opacity="0.42" d="M666.2 1330.65C896.227 1330.65 1082.7 1144.18 1082.7 914.15C1082.7 684.123 896.227 497.65 666.2 497.65C436.173 497.65 249.7 684.123 249.7 914.15C249.7 1144.18 436.173 1330.65 666.2 1330.65Z" stroke="#FFF" stroke-width="3" stroke-miterlimit="10"/>
    <path opacity="0.42" d="M774 1345C1004.03 1345 1190.5 1158.53 1190.5 928.5C1190.5 698.473 1004.03 512 774 512C543.973 512 357.5 698.473 357.5 928.5C357.5 1158.53 543.973 1345 774 1345Z" stroke="#FFF" stroke-width="3" stroke-miterlimit="10"/>
    <path opacity="0.42" d="M881.8 1330.65C1111.83 1330.65 1298.3 1144.18 1298.3 914.15C1298.3 684.123 1111.83 497.65 881.8 497.65C651.773 497.65 465.3 684.123 465.3 914.15C465.3 1144.18 651.773 1330.65 881.8 1330.65Z" stroke="#FFF" stroke-width="3" stroke-miterlimit="10"/>
    <path opacity="0.42" d="M982.25 1289.35C1212.28 1289.35 1398.75 1102.88 1398.75 872.85C1398.75 642.823 1212.28 456.35 982.25 456.35C752.223 456.35 565.75 642.823 565.75 872.85C565.75 1102.88 752.223 1289.35 982.25 1289.35Z" stroke="#FFF" stroke-width="3" stroke-miterlimit="10"/>
    <path opacity="0.42" d="M1068.35 1222.85C1298.38 1222.85 1484.85 1036.38 1484.85 806.35C1484.85 576.323 1298.38 389.85 1068.35 389.85C838.323 389.85 651.85 576.323 651.85 806.35C651.85 1036.38 838.323 1222.85 1068.35 1222.85Z" stroke="#FFF" stroke-width="3" stroke-miterlimit="10"/>
    <path opacity="0.42" d="M1134.85 1136.75C1364.88 1136.75 1551.35 950.277 1551.35 720.25C1551.35 490.223 1364.88 303.75 1134.85 303.75C904.823 303.75 718.35 490.223 718.35 720.25C718.35 950.277 904.823 1136.75 1134.85 1136.75Z" stroke="#FFF" stroke-width="3" stroke-miterlimit="10"/>
    <path opacity="0.42" d="M1176.15 1036.3C1406.18 1036.3 1592.65 849.827 1592.65 619.8C1592.65 389.773 1406.18 203.3 1176.15 203.3C946.123 203.3 759.65 389.773 759.65 619.8C759.65 849.827 946.123 1036.3 1176.15 1036.3Z" stroke="#FFF" stroke-width="3" stroke-miterlimit="10"/>
    <path opacity="0.42" d="M1190.5 928.5C1420.53 928.5 1607 742.027 1607 512C1607 281.973 1420.53 95.5 1190.5 95.5C960.473 95.5 774 281.973 774 512C774 742.027 960.473 928.5 1190.5 928.5Z" stroke="#FFF" stroke-width="3" stroke-miterlimit="10"/>
    <path opacity="0.42" d="M1176.15 820.7C1406.18 820.7 1592.65 634.227 1592.65 404.2C1592.65 174.173 1406.18 -12.3 1176.15 -12.3C946.123 -12.3 759.65 174.173 759.65 404.2C759.65 634.227 946.123 820.7 1176.15 820.7Z" stroke="#FFF" stroke-width="3" stroke-miterlimit="10"/>
    <path opacity="0.42" d="M1134.85 720.25C1364.88 720.25 1551.35 533.777 1551.35 303.75C1551.35 73.7234 1364.88 -112.75 1134.85 -112.75C904.823 -112.75 718.35 73.7234 718.35 303.75C718.35 533.777 904.823 720.25 1134.85 720.25Z" stroke="#FFF" stroke-width="3" stroke-miterlimit="10"/>
    <path opacity="0.42" d="M1068.35 634.15C1298.38 634.15 1484.85 447.677 1484.85 217.65C1484.85 -12.3766 1298.38 -198.85 1068.35 -198.85C838.323 -198.85 651.85 -12.3766 651.85 217.65C651.85 447.677 838.323 634.15 1068.35 634.15Z" stroke="#FFF" stroke-width="3" stroke-miterlimit="10"/>
    <path opacity="0.42" d="M982.25 567.65C1212.28 567.65 1398.75 381.177 1398.75 151.15C1398.75 -78.8766 1212.28 -265.35 982.25 -265.35C752.223 -265.35 565.75 -78.8766 565.75 151.15C565.75 381.177 752.223 567.65 982.25 567.65Z" stroke="#FFF" stroke-width="3" stroke-miterlimit="10"/>
    <path opacity="0.42" d="M881.8 526.35C1111.83 526.35 1298.3 339.877 1298.3 109.85C1298.3 -120.177 1111.83 -306.65 881.8 -306.65C651.773 -306.65 465.3 -120.177 465.3 109.85C465.3 339.877 651.773 526.35 881.8 526.35Z" stroke="#FFF" stroke-width="3" stroke-miterlimit="10"/>
    </g>
</svg>
