<svg width="1440" height="900" viewBox="0 0 1440 900" fill="none" xmlns="http://www.w3.org/2000/svg">
<path d="M0.0391655 900.5L233 497L465.961 900.5H0.0391655Z" fill="#0E55B4" stroke="white" stroke-width="2"/>
<path d="M200.327 901L642 136L1083.67 901H200.327Z" fill="#2D9CDB" stroke="white" stroke-width="2"/>
<path d="M761.673 -317L320 448L-121.673 -317L761.673 -317Z" fill="#2D9CDB" stroke="white" stroke-width="2"/>
<path d="M1764.82 0.25L1246.5 898L728.184 0.25L1764.82 0.25Z" fill="#0E55B4" stroke="white" stroke-width="2"/>
<path d="M324.102 972.75L641.5 423L958.898 972.75H324.102Z" fill="#1B1919" stroke="white" stroke-width="2"/>
<path d="M1563.9 -10.75L1246.5 539L929.102 -10.75L1563.9 -10.75Z" fill="#1B1919" stroke="white" stroke-width="2"/>
<path d="M636.898 -276.75L319.5 273L2.10168 -276.75L636.898 -276.75Z" fill="#1B1919" stroke="white" stroke-width="2"/>
<path d="M1251.9 278.25L934.5 828L617.102 278.25L1251.9 278.25Z" fill="#1B1919" style="mix-blend-mode:overlay"/>
<path d="M1251.9 278.25L934.5 828L617.102 278.25L1251.9 278.25Z" stroke="white" stroke-width="2"/>
<path d="M666.898 375.25L349.5 925L32.1017 375.25L666.898 375.25Z" fill="#1B1919" style="mix-blend-mode:overlay"/>
<path d="M666.898 375.25L349.5 925L32.1017 375.25L666.898 375.25Z" stroke="white" stroke-width="2"/>
<path d="M912.5 93L1090.47 401.25H734.532L912.5 93Z" fill="white" style="mix-blend-mode:overlay"/>
<path d="M622.102 457.75L939.5 -92L1256.9 457.75H622.102Z" fill="white" style="mix-blend-mode:overlay"/>
<path d="M622.102 457.75L939.5 -92L1256.9 457.75H622.102Z" stroke="white" stroke-width="2"/>
<path d="M497.732 898.5L815.13 348.75L1132.53 898.5H497.732Z" fill="white" style="mix-blend-mode:overlay"/>
<path d="M497.732 898.5L815.13 348.75L1132.53 898.5H497.732Z" stroke="white" stroke-width="2"/>
<path d="M883.102 658.75L1200.5 109L1517.9 658.75H883.102Z" fill="white" style="mix-blend-mode:overlay"/>
<path d="M883.102 658.75L1200.5 109L1517.9 658.75H883.102Z" stroke="white" stroke-width="2"/>
<path d="M2.10169 604.75L319.5 55L636.898 604.75H2.10169Z" fill="white" style="mix-blend-mode:overlay"/>
<path d="M2.10169 604.75L319.5 55L636.898 604.75H2.10169Z" stroke="white" stroke-width="2"/>
<path d="M319.5 232L497.468 540.25H141.532L319.5 232Z" fill="white" style="mix-blend-mode:overlay"/>
<path d="M-0.5 0L177.468 308.25L-178.468 308.25L-0.5 0Z" fill="white" style="mix-blend-mode:overlay"/>
<path d="M-76.5 950L-254.468 641.75H101.468L-76.5 950Z" fill="white" style="mix-blend-mode:overlay"/>
<path d="M706.5 694L884.468 1002.25H528.532L706.5 694Z" fill="white" style="mix-blend-mode:overlay"/>
<path d="M1477.5 642L1655.47 950.25L1299.53 950.25L1477.5 642Z" fill="white" style="mix-blend-mode:overlay"/>
<rect width="1440" height="900" fill="#2C0055" style="mix-blend-mode:difference"/>
</svg>
